PathFileType	4	(X/Y/Z)	69_1_47_p1_0-338.trc
DataRate	CameraRate	NumFrames	NumMarkers	Units	OrigDataRate	OrigDataStartFrame	OrigNumFrames
59.0	59.0	5	27	m	59.0	211	339
Frame#	Time	RHip			RKnee			RAnkle			RBigToe			RSmallToe			RHeel			LHip			LKnee			LAnkle			LBigToe			LSmallToe			LHeel			Neck			Head			Nose			RShoulder			RElbow			RWrist			RThumb			RIndex			RPinky			LShoulder			LElbow			LWrist			LThumb			LIndex			LPinky			
		X1	Y1	Z1	X2	Y2	Z2	X3	Y3	Z3	X4	Y4	Z4	X5	Y5	Z5	X6	Y6	Z6	X7	Y7	Z7	X8	Y8	Z8	X9	Y9	Z9	X10	Y10	Z10	X11	Y11	Z11	X12	Y12	Z12	X13	Y13	Z13	X14	Y14	Z14	X15	Y15	Z15	X16	Y16	Z16	X17	Y17	Z17	X18	Y18	Z18	X19	Y19	Z19	X20	Y20	Z20	X21	Y21	Z21	X22	Y22	Z22	X23	Y23	Z23	X24	Y24	Z24	X25	Y25	Z25	X26	Y26	Z26	X27	Y27	Z27	
211	3.5762711864406778	0.3007610618729036	0.5528602250911429	0.6011419935741044	0.27677790854744966	0.5737340186554827	0.9594295619171112	0.20959552091914724	0.6016302566685833	1.3463147803684297	0.2609779836833446	0.44021754161579496	1.345925008387172	0.3102141606876791	0.4769061671869228	1.345370468272669	0.14892055920486721	0.6927244391888205	1.4384497328560244	0.10076286937368428	0.45602278780560906	0.6005920004581106	0.053300034757096194	0.5125411481549468	0.9740211334927906	0.01688539079334899	0.5674791529528745	1.3663197095715502	0.12471992062679366	0.3579957827382773	1.3086884304813033	0.06931485532870812	0.37500815741189136	1.3087108665827156	0.0008506822714489631	0.6027868472361779	1.4142991713258963	0.20255062673501567	0.5056088398157128	0.005616854778259857	0.24966865606581606	0.4459792974399323	-0.24892136054532035	0.2555599193384861	0.40096086472450915	-0.11260040113026501	0.34947263122309125	0.5350048527770805	0.10326330993264689	0.3739153621818627	0.6427810916291468	0.36507436760031015	0.411462273310604	0.572184824457027	0.5789819003547226	0.40660653819794385	0.4727813081353136	0.6681277440695413	0.4336208439895592	0.4809723734428663	0.7162497630124992	0.41213360430368584	0.6026470046399559	0.7172524158806854	0.058832339202954824	0.41537260630143735	0.10071349227239665	0.02568623598382741	0.3830007380266267	0.3446227863441013	0.010887064915732965	0.34702935358132325	0.6016263291645995	0.04271441606147635	0.3120727381062556	0.6788120727888126	0.03038931285093714	0.29975100874485966	0.7173557328527678	-0.03594911676602672	0.35513335800220985	0.7518764801936176
212	3.593220338983051	0.29191299619670863	0.5655746660481185	0.6052079697771842	0.27677155237041245	0.5736602928926514	0.9590753651839559	0.2096142339492077	0.6016323067231055	1.3463977456272689	0.2621539496855099	0.42792290884299927	1.339106890895206	0.31031913109420994	0.47571944401289634	1.3449449959528967	0.1489869861413796	0.6925866320790615	1.438608943235619	0.1004944739785291	0.45624005814949337	0.6004940228517613	0.05333886252011207	0.5123987447877634	0.9739539292525744	0.01690360965283154	0.5673673106389322	1.3662787893408535	0.12480292919763875	0.3580477339144409	1.3085689749384382	0.06928502495568387	0.3751223420537204	1.3087117637508197	0.0008967889754080029	0.602630247156292	1.414370582251804	0.20254365029718235	0.5055721639663141	0.005673189435263839	0.24958624813061242	0.4459940288593846	-0.24893989080823084	0.2554067259862367	0.40119964843127154	-0.1125772600082486	0.3491878139588596	0.5353673457768523	0.09999266261674838	0.3738531955646128	0.642857573780258	0.36506891652190987	0.4112569521400876	0.5724613922864282	0.5790241853148479	0.40687072319319223	0.47215715650726336	0.6677897426351455	0.433709051517816	0.4809142605661306	0.7163641567891602	0.4119776773865445	0.6012015900608247	0.7126686175349998	0.05887040386937289	0.41522941522703843	0.1007165926614567	0.025690579458077456	0.3830345281457248	0.3446337834525791	0.010945607380266273	0.3469386030771426	0.6016982714221918	0.04308320439123846	0.3115695117203618	0.6825448193918944	0.030424260662369283	0.2998591173311527	0.7173976618154475	-0.02957643584162578	0.3418354734415716	0.7463923662940432
213	3.610169491525424	0.30067303850895066	0.5530367571918369	0.6007542827970805	0.2767867699564225	0.5735633166215196	0.9590815932130289	0.20954499679133007	0.6017212933421928	1.3463280452094744	0.26105611895847536	0.43971814697804024	1.3457665915292056	0.31031356885196043	0.47603380483874336	1.344934139330822	0.14714060831021133	0.7081018807920021	1.4466808436160252	0.10062453476341245	0.4560185536808354	0.6004132406372246	0.05346840957734658	0.5121558058009313	0.9737544396259805	0.016899203454672614	0.5673582881931689	1.3661631425607046	0.12486497169063046	0.3577837347002634	1.308561852073288	0.06937860370133457	0.3748738138541076	1.3087810345167727	0.0007908407079332246	0.6027878968441676	1.4143466988518612	0.20250262434472516	0.5056121874188044	0.00570386598118889	0.24953024325359469	0.44598067943785125	-0.24903644766399916	0.25549065735575655	0.40041861167331	-0.115734710322781	0.34921308134536944	0.5353977715433523	0.09998784554649097	0.3738316595344188	0.6428515450160952	0.36507084351730595	0.4112822087284629	0.5724419734059265	0.5790388463379171	0.4059127302458126	0.47281432226044073	0.6715389958727084	0.4335476808057724	0.4794029904972234	0.7122292144626873	0.4118723927848939	0.6012540509066057	0.7128987662434109	0.05903634255161763	0.41488942019753716	0.10401310061407137	0.025302138281423876	0.3838127179773044	0.3406449259646851	0.010948624077909674	0.34689765442832043	0.6016482692088174	0.043177916693388024	0.3111678053566146	0.682635125340773	0.030544401452987657	0.29955947770052266	0.717257846093054	-0.029572740023942414	0.34190288998278623	0.7463845308974814
214	3.6271186440677967	0.3007922717994453	0.5529197753669699	0.6008032986648744	0.2768432244657434	0.5735076582512737	0.9591285799992012	0.20943095802222111	0.601990749072108	1.3464453764439417	0.2607597095433779	0.4402381105842725	1.346424130335663	0.3099689871038064	0.47669869300782247	1.3456007363737204	0.1483533773369008	0.7081341148197994	1.4419640391328856	0.10065359968891563	0.456281362303208	0.6006497458796909	0.050064232969260505	0.5097003421137922	0.9734154298522507	0.016936065025315982	0.5673764431101996	1.3661657294260308	0.12470979062115078	0.35798647536857287	1.3087047612029379	0.07051420606888432	0.37507394889768153	1.3045809391686174	0.0008946653688826303	0.6026774863844344	1.4143265088271282	0.20251778638582707	0.5055539041899827	0.005743571151260297	0.24948464624278985	0.4461338251561722	-0.24898152559669626	0.2553868784748643	0.40122392942361884	-0.11262467355075569	0.34945449719759514	0.5350321488193853	0.10331291741550984	0.3738430354815023	0.6428060546825611	0.36510663166460183	0.4113252673014009	0.5723080816029634	0.5789437259704684	0.4058002181270436	0.4730163523377228	0.6715976182759207	0.433474439658425	0.4795165230508066	0.7121295129732871	0.41197554410474313	0.6011419060271957	0.712624557744625	0.058982214502233676	0.41488733693095986	0.1040319248883895	0.02573100252734066	0.3831070438082911	0.3446248244274589	0.0108719116894267	0.3470901615913819	0.6015890646949621	0.043275596772516245	0.3094394093913107	0.6782743416356846	0.030474930552503568	0.29927808661240624	0.7170916344324092	-0.03915248715290679	0.3507493227797128	0.7460544588294582
215	3.6440677966101696	0.3007454529091064	0.5528304769152961	0.6006659636607611	0.2768548639472142	0.5735119742092976	0.9590473937707827	0.20935131039856691	0.6021015757349047	1.346475169638131	0.2607846951144299	0.44115609664550887	1.3465513340197217	0.30997320191645455	0.4775766210149445	1.3458923727307077	0.14685749906159087	0.7061514169077902	1.4408137317447012	0.10069256868063835	0.45601931272532037	0.6003533908789779	0.05011157783184241	0.5096743560964315	0.9732440133467427	0.016909272442584368	0.567377416447613	1.3661546939796347	0.12475351780346931	0.3581678486505142	1.3085736159849064	0.069263010060275	0.3751308776454421	1.308741870764738	0.0008312730615229275	0.6027323082284297	1.4143201440134205	0.20257456453162337	0.5055089779292276	0.005696217038682931	0.2494013471313257	0.4461935186802786	-0.2490179234634897	0.255352468445341	0.4012410324124075	-0.11257038364707878	0.3494354664493949	0.5350924255793941	0.10336766838759712	0.373808549454905	0.6428621540319109	0.3651441792049086	0.4113655819252423	0.5722489826560301	0.5789056467894648	0.4067268512662076	0.47278777578060976	0.6678764509726148	0.43349182876254183	0.4795494240571415	0.712052439361522	0.4035388017804269	0.6140737132335113	0.7176926561589886	0.05906826939116586	0.41491063416645335	0.10401246223508794	0.0253242601144493	0.38389907649352056	0.34066186474892174	0.01089172786012996	0.3470744712843998	0.6015733432104753	0.04323486514685684	0.3097852119395616	0.678234721206217	0.030543645452768633	0.2995153035665689	0.7171858400726662	-0.03896597677509948	0.35068871148727104	0.7461480308334408
